<mxfile host="app.diagrams.net" modified="2023-12-25T10:31:18.869Z" agent="Mozilla/5.0 (X11; Linux x86_64; rv:121.0) Gecko/20100101 Firefox/121.0" version="22.1.11" etag="9jcvM_rnkl5dSGHcJpLK" type="github">
  <diagram name="Page-1" id="dMJTNP203uRPSQv3ae_e">
    <mxGraphModel>
      <root>
        <mxCell id="0" />
        <mxCell id="1" parent="0" />
      </root>
    </mxGraphModel>
  </diagram>
</mxfile>
